<?xml version="1.0" encoding="UTF-8" standalone="no"?>
<!-- Created with Inkscape (http://www.inkscape.org/) -->

<svg
   xmlns:dc="http://purl.org/dc/elements/1.1/"
   xmlns:cc="http://creativecommons.org/ns#"
   xmlns:rdf="http://www.w3.org/1999/02/22-rdf-syntax-ns#"
   xmlns:svg="http://www.w3.org/2000/svg"
   xmlns="http://www.w3.org/2000/svg"
   xmlns:sodipodi="http://sodipodi.sourceforge.net/DTD/sodipodi-0.dtd"
   xmlns:inkscape="http://www.inkscape.org/namespaces/inkscape"
   width="99.598877mm"
   height="101.61559mm"
   viewBox="0 0 99.598877 101.61559"
   version="1.1"
   id="svg8"
   inkscape:version="0.92.4 (5da689c313, 2019-01-14)"
   sodipodi:docname="logo_vbobroff.svg">
  <defs
     id="defs2" />
  <sodipodi:namedview
     id="base"
     pagecolor="#ffffff"
     bordercolor="#666666"
     borderopacity="1.0"
     inkscape:pageopacity="0.0"
     inkscape:pageshadow="2"
     inkscape:zoom="1"
     inkscape:cx="147.2846"
     inkscape:cy="154.51636"
     inkscape:document-units="mm"
     inkscape:current-layer="layer1"
     showgrid="false"
     showguides="false"
     inkscape:window-width="1600"
     inkscape:window-height="837"
     inkscape:window-x="-8"
     inkscape:window-y="-8"
     inkscape:window-maximized="1"
     fit-margin-top="0"
     fit-margin-left="0"
     fit-margin-right="0"
     fit-margin-bottom="0" />
  <metadata
     id="metadata5">
    <rdf:RDF>
      <cc:Work
         rdf:about="">
        <dc:format>image/svg+xml</dc:format>
        <dc:type
           rdf:resource="http://purl.org/dc/dcmitype/StillImage" />
        <dc:title></dc:title>
      </cc:Work>
    </rdf:RDF>
  </metadata>
  <g
     inkscape:label="Layer 1"
     inkscape:groupmode="layer"
     id="layer1"
     transform="translate(-75.60171,-33.753573)">
    <text
       xml:space="preserve"
       style="font-style:normal;font-weight:normal;font-size:10.58333302px;line-height:1.25;font-family:sans-serif;letter-spacing:0px;word-spacing:0px;fill:#333;fill-opacity:1;stroke:none;stroke-width:0.26458332"
       x="160.89626"
       y="84.253456"
       id="text940"><tspan
         sodipodi:role="line"
         id="tspan938"
         x="160.89626"
         y="93.908951"
         style="font-style:normal;font-variant:normal;font-weight:normal;font-stretch:normal;font-size:35.27777863px;font-family:Arial;-inkscape-font-specification:Arial;stroke:#000ff0;stroke-width:0.26458332;stroke-opacity:1" /></text>
    <g
       id="g4842"
       transform="matrix(1.4228411,0,0,1.4516513,-31.682147,-60.888445)">
      <path
         style="opacity:1;fill:none;fill-opacity:1;stroke:#333;stroke-width:6;stroke-miterlimit:4;stroke-dasharray:none;stroke-opacity:1"
         d="m 142.40115,100.19611 a 32,32 0 0 1 -32,32 32,32 0 0 1 -31.999999,-32 32,32 0 0 1 31.999999,-32 32,32 0 0 1 32,32 z"
         id="path12"
         inkscape:connector-curvature="0" />
      <g
         transform="translate(20.09525,31.65604)"
         id="text944"
         style="font-style:normal;font-weight:normal;font-size:10.58333302px;line-height:1.25;font-family:sans-serif;letter-spacing:0px;word-spacing:0px;fill:#333;fill-opacity:1;stroke:#333;stroke-width:2;stroke-miterlimit:4;stroke-dasharray:none;stroke-opacity:1"
         aria-label="B">
        <path
           inkscape:connector-curvature="0"
           id="path4771"
           style="font-style:normal;font-variant:normal;font-weight:normal;font-stretch:normal;font-size:38.09999847px;font-family:Roboto;-inkscape-font-specification:Roboto;fill:#333;fill-opacity:1;stroke:#333;stroke-width:2;stroke-miterlimit:4;stroke-dasharray:none;stroke-opacity:1"
           d="M 86.3131,83.037865 V 55.951147 h 8.855273 q 4.409033,0 6.622847,1.823144 2.23243,1.823145 2.23243,5.39502 0,1.897558 -1.07901,3.367236 -1.079,1.451074 -2.93935,2.251025 2.19521,0.613916 3.46025,2.344043 1.28364,1.711524 1.28364,4.092773 0,3.646289 -2.36264,5.729883 -2.36265,2.083594 -6.678665,2.083594 z m 3.571874,-12.668994 v 9.748242 h 5.897315 q 2.492871,0 3.925341,-1.283643 1.45107,-1.302246 1.45107,-3.571875 0,-4.892724 -5.320601,-4.892724 z m 0,-2.864941 h 5.39502 q 2.344043,0 3.739306,-1.172022 1.41387,-1.172021 1.41387,-3.181201 0,-2.232422 -1.302249,-3.237011 -1.302246,-1.023194 -3.962548,-1.023194 h -5.283399 z" />
      </g>
      <path
         inkscape:connector-curvature="0"
         id="rect987"
         d="m 89.330698,95.509179 3.448146,-2.893338 16.158866,19.257389 -3.44815,2.89333 z"
         style="opacity:1;fill:#333;fill-opacity:1;stroke:#333;stroke-width:1.31959975;stroke-miterlimit:4;stroke-dasharray:none;stroke-opacity:1" />
    </g>
  </g>
</svg>
