<?xml version="1.0" encoding="utf-8"?>
<!-- Generator: Adobe Illustrator 19.0.0, SVG Export Plug-In . SVG Version: 6.00 Build 0)  -->
<svg version="1.1" id="Layer_1" xmlns="http://www.w3.org/2000/svg" xmlns:xlink="http://www.w3.org/1999/xlink" x="0px" y="0px"
	 viewBox="0 0 512 512" style="enable-background:new 0 0 512 512;" xml:space="preserve">
<g id="XMLID_1">
	<path id="XMLID_6"
	style="fill:#ffffff;stroke:#ffffff;" 
	d="M223,39.6L4.7,437.4c-13.7,24.9,4.3,55,33.5,55h435.7c28.4,0,47.3-30.1,33.5-55L290,39.6
		C275.4,12.9,237.6,12.9,223,39.6L223,39.6z M278,204.5l-4.3,150.4h-34.4L235,204.5H278z M256.5,436.6c-12.9,0-23.2-10.3-23.2-22.3
		c0-12,10.3-22.3,23.2-22.3c12.9,0,23.2,10.3,23.2,22.3C279.7,426.3,269.4,436.6,256.5,436.6z"/>
</g>
</svg>
